<svg xmlns="http://www.w3.org/2000/svg" viewBox="0 0 32 32" width="32" height="32">
  <!-- Background circle -->
  <circle cx="16" cy="16" r="15" fill="#667eea" stroke="#764ba2" stroke-width="1"/>
  
  <!-- Laptop base -->
  <rect x="6" y="18" width="20" height="2" fill="#2d3748" rx="1"/>
  
  <!-- Laptop screen -->
  <rect x="7" y="10" width="18" height="10" fill="#4a5568" rx="1"/>
  <rect x="8" y="11" width="16" height="8" fill="#1a202c" rx="0.5"/>
  
  <!-- Code lines on screen -->
  <rect x="9" y="13" width="8" height="1" fill="#68d391" rx="0.5"/>
  <rect x="9" y="15" width="6" height="1" fill="#68d391" rx="0.5"/>
  <rect x="9" y="17" width="10" height="1" fill="#68d391" rx="0.5"/>
  
  <!-- Cursor/typing indicator -->
  <rect x="19" y="13" width="1" height="1" fill="#f56565"/>
  
  <!-- Coffee cup -->
  <ellipse cx="24" cy="20" rx="2" ry="1.5" fill="#8b4513"/>
  <rect x="22" y="18" width="4" height="2" fill="#8b4513" rx="1"/>
  <rect x="23" y="17" width="2" height="1" fill="#8b4513" rx="0.5"/>
  
  <!-- Steam from coffee -->
  <path d="M 23 16 Q 22 15 23 14" stroke="#e2e8f0" stroke-width="0.5" fill="none"/>
  <path d="M 24 16 Q 25 15 24 14" stroke="#e2e8f0" stroke-width="0.5" fill="none"/>
  
  <!-- Small accent dots representing code -->
  <circle cx="26" cy="12" r="0.5" fill="#f093fb"/>
  <circle cx="27" cy="13" r="0.5" fill="#f093fb"/>
  <circle cx="26" cy="14" r="0.5" fill="#f093fb"/>
</svg>
